<svg width="59" height="59" viewBox="0 0 59 59" fill="none" xmlns="http://www.w3.org/2000/svg">
<g clip-path="url(#clip0)">
<path d="M33.5395 27.98C33.7135 28.3203 34.0597 28.5169 34.4176 28.5169C34.5671 28.5169 34.7204 28.4824 34.8631 28.4097C34.921 28.3802 40.709 25.44 43.5636 24.5383C44.0808 24.3741 44.3679 23.8215 44.2037 23.3043C44.0404 22.787 43.4918 22.4989 42.9696 22.6622C39.9626 23.6131 34.2141 26.5336 33.9703 26.6575C33.4864 26.9033 33.2937 27.4953 33.5395 27.98Z" fill="#354882"/>
<path d="M34.4177 16.7171C34.5672 16.7171 34.7205 16.6827 34.8632 16.61C34.9211 16.5805 40.7091 13.6403 43.5637 12.7386C44.0809 12.5744 44.368 12.0217 44.2038 11.5045C44.0405 10.9873 43.4919 10.6992 42.9697 10.8625C39.9627 11.8134 34.2142 14.7338 33.9704 14.8577C33.4866 15.1035 33.2938 15.6955 33.5396 16.1802C33.7136 16.5204 34.0598 16.7171 34.4177 16.7171Z" fill="#354882"/>
<path d="M58.0172 14.7504C57.4734 14.7504 57.0339 15.1909 57.0339 15.7336V54.0833C57.0339 55.7098 55.7104 57.0333 54.084 57.0333H30.4841V54.7707C31.9179 54.2692 35.6525 53.1001 39.3341 53.1001C47.8998 53.1001 53.7163 54.9969 53.7742 55.0165C54.0701 55.1148 54.4006 55.0657 54.6592 54.8808C54.9158 54.6959 55.0672 54.399 55.0672 54.0832V10.8171C55.0672 10.3559 54.7477 9.95664 54.2973 9.85731C54.2973 9.85731 53.5263 9.68527 52.2086 9.44328C51.6766 9.34498 51.1624 9.69898 51.064 10.2319C50.9657 10.7668 51.3187 11.2792 51.8527 11.3775C52.3552 11.4699 52.7761 11.5515 53.1006 11.6165V52.7765C50.8723 52.1924 45.9243 51.1334 39.334 51.1334C35.0496 51.1334 30.841 52.5405 29.539 53.0174C28.3816 52.5061 24.883 51.1334 20.6507 51.1334C13.8775 51.1334 8.29813 52.2504 5.90082 52.8179V11.5781C7.86451 11.0953 13.6642 9.83369 20.6507 9.83369C24.236 9.83369 27.3107 10.9497 28.5173 11.4542V50.1501C28.5173 50.5041 28.7081 50.8316 29.0158 51.0056C29.3236 51.1806 29.7032 51.1757 30.0071 50.9928C30.1045 50.9348 39.8472 45.1154 48.4946 42.2333C48.8967 42.0986 49.1672 41.724 49.1672 41.3001V0.983756C49.1672 0.661217 49.0088 0.359305 48.7433 0.175508C48.4798 -0.00840466 48.1416 -0.0506953 47.8377 0.0624639C39.9702 3.01336 32.0093 7.96737 31.9295 8.01657C31.4693 8.30465 31.3287 8.91136 31.6168 9.3716C31.9039 9.83184 32.5106 9.97243 32.9718 9.68434C33.0445 9.63813 39.9702 5.32921 47.2005 2.42152V40.5962C40.4883 42.9286 33.4801 46.7371 30.4839 48.4421V10.8171C30.4839 10.4444 30.2735 10.1041 29.9401 9.93705C29.771 9.85351 25.7414 7.86711 20.6507 7.86711C11.7654 7.86711 4.93424 9.78955 4.64707 9.87206C4.2252 9.99202 3.93413 10.3785 3.93413 10.8171V54.0835C3.93413 54.3912 4.07967 54.6823 4.32454 54.8682C4.49762 54.999 4.70607 55.0669 4.91753 55.0669C5.00799 55.0669 5.09844 55.0541 5.18694 55.0285C5.25482 55.0098 12.0545 53.1002 20.6507 53.1002C24.2458 53.1002 27.3176 54.2192 28.5173 54.7216V57.0334H4.91753C3.29112 57.0334 1.96755 55.7099 1.96755 54.0835V15.7338C1.96755 15.191 1.52701 14.7505 0.984264 14.7505C0.441514 14.7505 0.000976562 15.191 0.000976562 15.7338V54.0835C0.000976562 56.7944 2.20655 59.0001 4.91764 59.0001H54.084C56.7949 59.0001 59.0006 56.7946 59.0006 54.0835V15.7338C59.0005 15.1909 58.561 14.7504 58.0172 14.7504Z" fill="#354882"/>
<path d="M33.5395 22.0801C33.7135 22.4203 34.0597 22.6169 34.4176 22.6169C34.5671 22.6169 34.7204 22.5825 34.8631 22.5098C34.921 22.4803 40.709 19.5401 43.5636 18.6384C44.0808 18.4742 44.3679 17.9215 44.2037 17.4043C44.0404 16.8871 43.4918 16.599 42.9696 16.7623C39.9626 17.7132 34.2141 20.6337 33.9703 20.7575C33.4864 21.0033 33.2937 21.5954 33.5395 22.0801Z" fill="#354882"/>
<path d="M33.5395 33.8799C33.7135 34.2202 34.0597 34.4168 34.4176 34.4168C34.5671 34.4168 34.7204 34.3823 34.8631 34.3096C34.921 34.2801 40.709 31.34 43.5636 30.4382C44.0808 30.274 44.3679 29.7214 44.2037 29.2042C44.0404 28.6869 43.4918 28.3988 42.9696 28.5621C39.9626 29.513 34.2141 32.4335 33.9703 32.5574C33.4864 32.8032 33.2937 33.3953 33.5395 33.8799Z" fill="#354882"/>
<path d="M23.8243 18.2491C17.7523 16.8242 10.8522 18.6395 10.5622 18.7172C10.0381 18.8578 9.7264 19.3966 9.86699 19.9217C9.98499 20.3612 10.3822 20.6503 10.8159 20.6503C10.9005 20.6503 10.986 20.6395 11.0716 20.6169C11.1376 20.5983 17.7809 18.8508 23.376 20.1636C23.9021 20.2865 24.4341 19.959 24.558 19.43C24.6817 18.902 24.3533 18.373 23.8243 18.2491Z" fill="#354882"/>
<path d="M23.8243 24.1491C17.7523 22.7253 10.8522 24.5395 10.5622 24.6172C10.0381 24.7578 9.7264 25.2967 9.86699 25.8217C9.98499 26.2612 10.3822 26.5503 10.8159 26.5503C10.9005 26.5503 10.986 26.5395 11.0716 26.5169C11.1376 26.4982 17.7809 24.7508 23.376 26.0636C23.9021 26.1865 24.4341 25.859 24.558 25.33C24.6817 24.802 24.3533 24.273 23.8243 24.1491Z" fill="#354882"/>
<path d="M33.5395 39.7799C33.7135 40.1202 34.0597 40.3168 34.4176 40.3168C34.5671 40.3168 34.7204 40.2823 34.8631 40.2096C34.921 40.1801 40.709 37.2399 43.5636 36.3382C44.0808 36.174 44.3679 35.6213 44.2037 35.1042C44.0404 34.587 43.4918 34.2988 42.9696 34.4621C39.9626 35.413 34.2141 38.3335 33.9703 38.4574C33.4864 38.7031 33.2937 39.2952 33.5395 39.7799Z" fill="#354882"/>
<path d="M23.8243 30.049C17.7523 28.6252 10.8522 30.4384 10.5622 30.5171C10.0381 30.6577 9.7264 31.1966 9.86699 31.7216C9.98499 32.1611 10.3822 32.4513 10.8159 32.4513C10.9005 32.4513 10.986 32.4395 11.0716 32.4168C11.1376 32.3982 17.7809 30.6508 23.376 31.9635C23.9021 32.0865 24.4341 31.759 24.558 31.2299C24.6817 30.7019 24.3533 30.1729 23.8243 30.049Z" fill="#354882"/>
<path d="M23.8243 41.8489C17.7523 40.424 10.8522 42.2393 10.5622 42.317C10.0381 42.4576 9.7264 42.9965 9.86699 43.5215C9.98499 43.961 10.3822 44.2512 10.8159 44.2512C10.9005 44.2512 10.986 44.2394 11.0716 44.2167C11.1376 44.1981 17.7809 42.4507 23.376 43.7634C23.9021 43.8853 24.4341 43.5589 24.558 43.0298C24.6817 42.5018 24.3533 41.9728 23.8243 41.8489Z" fill="#354882"/>
<path d="M23.8243 35.949C17.7523 34.5241 10.8522 36.3383 10.5622 36.417C10.0381 36.5576 9.7264 37.0966 9.86699 37.6216C9.98499 38.0611 10.3822 38.3512 10.8159 38.3512C10.9005 38.3512 10.986 38.3395 11.0716 38.3168C11.1376 38.2981 17.7809 36.5507 23.376 37.8634C23.9021 37.9864 24.4341 37.6589 24.558 37.1299C24.6817 36.6019 24.3533 36.0728 23.8243 35.949Z" fill="#354882"/>
</g>
<defs>
<clipPath id="clip0">
<rect width="59" height="59" fill="white"/>
</clipPath>
</defs>
</svg>
