<svg width="414" height="209" viewBox="0 0 414 209" fill="none" xmlns="http://www.w3.org/2000/svg">
<g clip-path="url(#clip0)">
<path d="M-214.001 98.229C-170.786 84.6075 -120.368 97.458 -88.9857 130.098C-62.7479 157.598 -45.7705 199.491 -8.72889 207.715C18.0234 213.883 45.0328 198.977 66.126 181.243C87.2191 163.509 105.74 142.178 130.692 130.612C169.791 112.622 216.093 122.645 256.736 136.78C297.636 150.659 339.308 168.393 382.265 164.28C433.712 159.14 479.757 119.561 492.618 69.701C507.538 11.3598 481.557 -58.2897 518.342 -106.093C543.293 -138.477 588.052 -147.215 628.952 -147.729C669.852 -148.243 711.781 -142.332 750.623 -154.668C786.893 -166.491 818.018 -194.505 833.195 -229.715C848.372 -264.668 847.6 -306.561 831.137 -341L-213.744 -341L-213.744 98.229L-214.001 98.229Z" fill="#5DC6C9"/>
</g>
<rect x="155" y="88" width="106" height="106" rx="25" fill="#ECEDF3"/>
<defs>
<clipPath id="clip0">
<rect width="1058" height="550" fill="white" transform="matrix(-1 8.74228e-08 8.74228e-08 1 844 -341)"/>
</clipPath>
</defs>
</svg>
