<svg width="57" height="57" viewBox="0 0 57 57" fill="none" xmlns="http://www.w3.org/2000/svg">
<g clip-path="url(#clip0)">
<path d="M57 28.6667C57 44.3333 44.3333 57.3333 28.3333 57.3333C24.6667 57.3333 21.3333 56.6667 18.3333 55.6667C18.3333 55.6667 18.3333 55.6667 18 55.6667C7.66667 51 0 40.6667 0 28.6667C0 24.6667 0.666667 21 2 17.6667C2 17.6667 2 17.6667 2 17.3333C6.66667 7 16.6667 0 28.6667 0C44.3333 0 57 12.6667 57 28.6667Z" fill="#1A8EA1"/>
<path d="M31.3334 47.9999H18C15.6667 47.9999 13.6667 45.9999 13.6667 43.6665V13.3332C13.6667 10.9999 15.6667 8.99988 18 8.99988H31.3334C33.6667 8.99988 35.6667 10.9999 35.6667 13.3332V43.6665C35.6667 45.9999 33.6667 47.9999 31.3334 47.9999Z" fill="#3C4451"/>
<path d="M30.6667 46.3332H18.6667C16.6667 46.3332 14.6667 44.6665 14.6667 42.3332V14.6665C14.6667 12.6665 16.3333 10.6665 18.6667 10.6665H31C33 10.6665 35 12.3332 35 14.6665V42.3332C34.6667 44.3332 33 46.3332 30.6667 46.3332Z" fill="white"/>
<path d="M43.3333 22.3333V35.6666C43.3333 36.6666 42.6667 37.6666 41.3333 37.6666H18.3333C17.3333 37.6666 16.3333 36.9999 16.3333 35.6666V22.3333C16.3333 21.3333 17 20.3333 18.3333 20.3333H41.3333C42.3333 20.6666 43.3333 21.3333 43.3333 22.3333Z" fill="#FFC444"/>
<path d="M43.3333 31.3334H16.6667V33.6667H43.3333V31.3334Z" fill="white"/>
<path d="M39.3333 25C39.8856 25 40.3333 24.5523 40.3333 24C40.3333 23.4477 39.8856 23 39.3333 23C38.7811 23 38.3333 23.4477 38.3333 24C38.3333 24.5523 38.7811 25 39.3333 25Z" fill="#F75435"/>
<path d="M38.3334 24.9999C37.6667 24.9999 37 24.3333 37 23.6666C37 22.9999 37.6667 22.3333 38.3334 22.3333C39 22.3333 39.6667 22.9999 39.6667 23.6666C39.6667 24.6666 39 24.9999 38.3334 24.9999ZM38.3334 22.9999C37.6667 22.9999 37.3334 23.3333 37.3334 23.9999C37.3334 24.6666 37.6667 24.9999 38.3334 24.9999C39 24.9999 39.3334 24.6666 39.3334 23.9999C39.3334 23.3333 39 22.9999 38.3334 22.9999Z" fill="white"/>
<path d="M23 23.3332H20C20 23.3332 19.6667 23.3332 19.6667 22.9998C19.6667 22.6665 19.6667 22.6665 20 22.6665H23C23.3333 22.6665 23.3333 22.9998 23.3333 22.9998C23.3333 23.3332 23.3333 23.3332 23 23.3332Z" fill="#F75435"/>
<path d="M25.3333 24.9998H20C19.6667 24.9998 19.6667 24.9998 19.6667 24.6665C19.6667 24.3331 19.6667 24.3331 20 24.3331H25.3333C25.6667 24.3331 25.6667 24.3331 25.6667 24.6665C25.6667 24.6665 25.6667 24.9998 25.3333 24.9998Z" fill="#F75435"/>
<path d="M28 11.3331H22.3333C22 11.3331 21.3333 10.9998 21.3333 10.3331C21.3333 9.9998 21.6667 9.33313 22.3333 9.33313H28C28.3333 9.33313 29 9.66646 29 10.3331C29 10.9998 28.6667 11.3331 28 11.3331Z" fill="#3C4451"/>
</g>
<defs>
<clipPath id="clip0">
<rect width="57" height="57" fill="white"/>
</clipPath>
</defs>
</svg>
